<svg width="224" height="224" viewBox="0 0 224 224" fill="none" xmlns="http://www.w3.org/2000/svg">
<g clip-path="url(#clip0)">
<path d="M83.9018 4.68991L83.9016 4.68984C69.3642 0.792544 56.5862 1.61605 46.3648 4.0903C32.5606 7.43332 20.8407 14.7842 12.6057 24.342L83.9018 4.68991ZM83.9018 4.68991C101.286 9.34798 115.511 19.5296 124.163 32.5407L83.9018 4.68991ZM137.311 83.875L137.31 83.8766L137.309 83.8879L137.301 83.9394C137.294 83.9864 137.283 84.0586 137.267 84.1549C137.237 84.3475 137.19 84.6364 137.124 85.013C136.992 85.7663 136.787 86.8697 136.496 88.2536C135.912 91.0229 134.984 94.9082 133.605 99.3558C130.839 108.279 126.305 119.326 119.226 128.181C119.224 128.184 119.222 128.186 119.22 128.188L119.22 128.188L119.187 128.23C119.158 128.265 119.116 128.317 119.062 128.384C118.955 128.519 118.799 128.716 118.601 128.97C118.206 129.479 117.642 130.219 116.959 131.153C115.594 133.019 113.751 135.668 111.831 138.805C108.021 145.028 103.784 153.371 102.539 161.404C102.109 164.169 101.564 166.857 100.714 169.462C99.4108 173.457 97.2748 178.888 94.1657 183.63C91.035 188.404 87.1013 192.202 82.2982 193.428L82.1145 193.475L81.9444 193.555L81.944 193.555L81.9431 193.556L81.9429 193.556L81.932 193.561L81.8768 193.586C81.8589 193.594 81.8376 193.604 81.8128 193.615C81.7662 193.636 81.7076 193.662 81.6372 193.693C81.4213 193.787 81.0951 193.926 80.6687 194.097C79.8156 194.439 78.5637 194.91 76.994 195.411C73.8494 196.415 69.458 197.532 64.4611 197.998C54.4606 198.93 42.2557 197.246 32.5861 187.077L32.584 187.075C32.0982 186.566 31.5929 186.046 31.0721 185.539L29.6756 186.97L31.072 185.538C29.9911 184.484 26.0671 179.928 24.2507 167.763C22.7371 157.572 19.5077 147.575 14.246 138.22C11.9099 134.063 9.07691 129.587 5.73495 125.131L5.73337 125.129C-2.63445 114.003 -8.06815 101.64 -9.52147 88.7902L137.311 83.875ZM-9.52158 88.7892C-11.4615 71.5561 -8.15719 48.4607 12.6052 24.3427L-9.52158 88.7892Z" stroke="white" stroke-width="4" stroke-miterlimit="10"/>
<path d="M29 10.5L52.2897 19.8584L50.5 2.5" stroke="white" stroke-width="4" stroke-miterlimit="10"/>
<path d="M85.896 3.57471L87.6532 56.3595L136.358 52.785" stroke="white" stroke-width="4" stroke-miterlimit="10"/>
<path d="M80.835 81.7778L87.6536 56.3594L139.471 76.2555" stroke="white" stroke-width="4" stroke-miterlimit="10"/>
<path d="M-11.4692 89.3477L24.3383 88.9267L3.5 39L52.587 19.8203L87.6542 56.3593" stroke="white" stroke-width="4" stroke-miterlimit="10"/>
<path d="M52.5865 19.8203L24.3379 88.9267L80.8351 81.7778L52.5865 19.8203Z" stroke="white" stroke-width="4" stroke-miterlimit="10"/>
<path d="M23 162.5L53.5604 141.352L52.07 199.584" stroke="white" stroke-width="4" stroke-miterlimit="10"/>
<path d="M109.274 146.553L80.835 81.7778L126.808 119.546" stroke="white" stroke-width="4" stroke-miterlimit="10"/>
<path d="M80.5384 81.8154L53.6358 141.39H16" stroke="white" stroke-width="4" stroke-miterlimit="10"/>
<path d="M92.7145 187.858L53.5087 140.362L24.2354 88.9644L13.5 137.5" stroke="white" stroke-width="4" stroke-miterlimit="10"/>
<path d="M53.5601 141.352L103.429 164.823" stroke="white" stroke-width="4" stroke-miterlimit="10"/>
<path d="M38.2046 210.944V206.001H83.9091V210.944H38.2046Z" stroke="white" stroke-width="3" stroke-miterlimit="10"/>
<path d="M46.9712 222.5V217.557H75.1421V222.5H46.9712Z" stroke="white" stroke-width="3" stroke-miterlimit="10"/>
</g>
<defs>
<clipPath id="clip0">
<rect width="224" height="224" fill="white"/>
</clipPath>
</defs>
</svg>
